# AST/ASF file generated using VICON BodyLanguage
# -----------------------------------------------
:version 1.10
:name VICON
:units
  mass 1.0
  length 0.45
  angle deg
:documentation
   .ast/.asf automatically generated from VICON data using
   VICON BodyBuilder and BodyLanguage model FoxedUp or BRILLIANT.MOD
:root
   order TX TY TZ RX RY RZ
   axis XYZ
   position 0 0 0  
   orientation 0 0 0 
:bonedata
  begin
     id 1 
     name lhipjoint
     direction 0.645897 -0.709066 0.282916 
     length 2.50918 
     axis 0 0 0  XYZ
  end
  begin
     id 2 
     name lfemur
     direction 0.34202 -0.939693 0  
     length 6.85725  
     axis 0 0 20  XYZ
    dof rx ry rz
    limits (-160.0 20.0)
           (-70.0 70.0)
           (-60.0 70.0)
  end
  begin
     id 3 
     name ltibia
     direction 0.34202 -0.939693 0   
     length 8.01778   
     axis 0 0 20   XYZ
    dof rx
    limits (-10.0 170.0)
  end
  begin
     id 4 
     name lfoot
     direction 0.0796011 -0.218702 0.972539   
     length 2.13962   
     axis -90 7.62852e-016 20   XYZ
    dof rx rz
    limits (-45.0 90.0)
           (-70.0 20.0)
  end
  begin
     id 5 
     name ltoes
     direction 1.53548e-011 -4.21881e-011 1   
     length 1.07476   
     axis -90 7.62852e-016 20   XYZ
    dof rx
    limits (-90.0 20.0)
  end
  begin
     id 6 
     name rhipjoint
     direction -0.63101 -0.720537 0.287493   
     length 2.46923  
     axis 0 0 0  XYZ 
  end
  begin
     id 7 
     name rfemur
     direction -0.34202 -0.939693 0   
     length 6.81957   
     axis 0 0 -20   XYZ
    dof rx ry rz
    limits (-160.0 20.0)
           (-70.0 70.0)
           (-70.0 60.0)
  end
  begin
     id 8 
     name rtibia
     direction -0.34202 -0.939693 0   
     length 8.15152   
     axis 0 0 -20   XYZ
    dof rx
    limits (-10.0 170.0)
 end
 begin
     id 9 
     name rfoot
     direction -0.105819 -0.290734 0.950934   
     length 2.14588  
     axis -90 -7.62852e-016 -20   XYZ
    dof rx rz
    limits (-45.0 90.0)
           (-20.0 70.0)
  end
  begin
     id 10 
     name rtoes
     direction -1.53512e-011 -4.22005e-011 1   
     length 1.0703   
     axis -90 -7.62852e-016 -20   XYZ
    dof rx
    limits (-90.0 20.0)
  end
  begin
     id 11 
     name lowerback
     direction 0.0114933 0.999236 0.0373542   
     length 1.91711   
     axis 0 0 0   XYZ
    dof rx ry rz
    limits (-20.0 45.0)
           (-30.0 30.0)
           (-30.0 30.0)
  end
  begin
     id 12 
     name upperback
     direction 0.00911529 0.998099 0.0609554   
     length 1.90888   
     axis 0 0 0   XYZ
    dof rx ry rz
    limits (-20.0 45.0)
           (-30.0 30.0)
           (-30.0 30.0)
  end
  begin
     id 13 
     name thorax
     direction 0.00357322 0.99911 0.0420379   
     length 1.90942   
     axis 0 0 0   XYZ
    dof rx ry rz
    limits (-20.0 45.0)
           (-30.0 30.0)
           (-30.0 30.0)
  end
  begin
     id 14 
     name lowerneck
     direction -0.0589311 0.997882 0.0275448   
     length 1.83956   
     axis 0 0 0   XYZ
    dof rx ry rz
    limits (-20.0 45.0)
           (-30.0 30.0)
           (-30.0 30.0)
  end
  begin
     id 15 
     name upperneck
     direction 0.0362633 0.960055 -0.277453   
     length 1.82031   
     axis 0 0 0   XYZ
    dof rx ry rz
    limits (-20.0 45.0)
           (-30.0 30.0)
           (-30.0 30.0)
  end
  begin
     id 16
     name head
     direction 0.0166719 0.995328 -0.0951042  
     length 1.86084  
     axis 0 0 0   XYZ
    dof rx ry rz
    limits (-20.0 45.0)
           (-30.0 30.0)
           (-30.0 30.0)
  end
  begin
     id 17 
     name lclavicle
     direction 0.90319 0.426238 0.0506919  
     length 3.17828  
     axis 0 0 0   XYZ
    dof ry rz
    limits (-20.0 10.0)
           (0.0 20.0)
  end
  begin
     id 18 
     name lhumerus
     direction 1 -4.48953e-011 6.78797e-028   
     length 5.43592   
     axis 180 -30 -90   XYZ
    dof rx ry rz
    limits (-60.0 90.0)
           (-90.0 90.0)
           (-90.0 90.0)
  end
  begin
     id 19
     name lradius
     direction 1 -4.48969e-011 7.02702e-027   
     length 3.2546   
     axis 180 -30 -90   XYZ
    dof rx
    limits (-10.0 170.0)
  end
  begin
     id 20
     name lwrist
     direction 1 -4.48975e-011 1.29807e-026   
     length 1.6273   
     axis -8.50346e-015 90 90   XYZ
    dof ry
    limits (-180.0 0.0)
 end
  begin
     id 21 
     name lhand
     direction 1 -4.48917e-011 2.59615e-026   
     length 0.498244   
     axis -1.65656e-014 90 90   XYZ
    dof rx rz
    limits (-90.0 90.0)
           (-45.0 45.0)
  end
  begin
     id 22 
     name lfingers
     direction 1 -4.48885e-011 5.1923e-026   
     length 0.401697   
     axis -3.31313e-014 90 90   XYZ
    dof rx
    limits (0.0 90.0)
  end
  begin
     id 23
     name lthumb
     direction 0.707107 -6.34946e-011 0.707107   
     length 0.576759   
     axis -90 45 2.85299e-015   XYZ
    dof rx rz
    limits (-45.0 45.0)
           (-45.0 45.0)
  end
  begin
     id 24 
     name rclavicle
     direction -0.908603 0.391432 0.145676   
     length 3.15477  
     axis 0 0 0   XYZ 
    dof ry rz
    limits (-10.0 20.0)
           (-20.0 0.0)
  end
  begin
     id 25 
     name rhumerus
     direction -1 -4.4898e-011 1.02852e-027  
     length 5.3383   
     axis 180 30 90   XYZ
    dof rx ry rz
    limits (-90.0 60.0)
           (-90.0 90.0)
           (-90.0 90.0)
  end
  begin
     id 26 
     name rradius
     direction -1 -4.48968e-011 7.05567e-027   
     length 3.23148   
     axis 180 30 90   XYZ
    dof rx
    limits (-10.0 170.0)
  end
  begin
     id 27 
     name rwrist
     direction -1 -4.48927e-011 1.29807e-026   
     length 1.61574   
     axis -8.50346e-015 -90 -90   XYZ
    dof ry
    limits (-180.0 0.0)
  end
  begin
     id 28
     name rhand
     direction -1 -4.48905e-011 2.59615e-026   
     length 0.463641   
     axis -1.65656e-014 -90 -90   XYZ
    dof rx rz
    limits (-90.0 90.0)
           (-45.0 45.0)
  end
  begin
     id 29
     name rfingers
     direction -1 -4.49167e-011 5.1923e-026   
     length 0.373799   
     axis -3.31313e-014 -90 -90   XYZ
    dof rx
    limits (0.0 90.0)
  end
  begin
     id 30
     name rthumb
     direction -0.707107 -6.34954e-011 0.707107   
     length 0.536703   
     axis -90 -45 -2.85299e-015   XYZ
    dof rx rz
    limits (-45.0 45.0)
           (-45.0 45.0)
  end
:hierarchy
  begin
    root lhipjoint rhipjoint lowerback
    lhipjoint lfemur
    lfemur ltibia
    ltibia lfoot
    lfoot ltoes
    rhipjoint rfemur
    rfemur rtibia
    rtibia rfoot
    rfoot rtoes
    lowerback upperback
    upperback thorax
    thorax lowerneck lclavicle rclavicle
    lowerneck upperneck
    upperneck head
    lclavicle lhumerus
    lhumerus lradius
    lradius lwrist
    lwrist lhand lthumb
    lhand lfingers
    rclavicle rhumerus
    rhumerus rradius
    rradius rwrist
    rwrist rhand rthumb
    rhand rfingers
  end

#!OML:ASF F:\VICON\USERDATA\INSTALL\rory3\rory3.ASF
:FULLY-SPECIFIED
:DEGREES
113
root 3.98619 17.6505 3.5808 20.3627 -6.4967 -5.354
lowerback -5.678 -1.16752 5.24515
upperback -10.9819 -1.3953 4.08974
thorax -8.45824 -0.946895 1.44276
lowerneck -9.87834 10.8404 8.68483
upperneck 27.6484 13.4298 0.789238
head 11.1394 7.11697 0.57811
rclavicle -1.16786e-014 2.54444e-014
rhumerus -0.359495 -23.8542 16.0872
rradius 117.128
rwrist -57.3794
rhand -4.74624 -45.2769
rfingers 7.12502
rthumb 21.0372 -74.1559
lclavicle -1.16786e-014 2.54444e-014
lhumerus 30.2725 31.3135 -13.9729
lradius 29.0026
lwrist 34.4478
lhand -21.0312 -16.4879
lfingers 7.12502
lthumb 5.34422 13.4247
rfemur -9.4589 8.39162 0.520779
rtibia 14.4843
rfoot 21.7647 -7.57667
rtoes -35.7137
lfemur -25.8862 -4.67519 -19.8557
ltibia 22.3832
lfoot -14.4826 9.43001
ltoes 8.7822
114
root 3.99058 17.6498 3.56655 20.3898 -6.46915 -5.45424
lowerback -5.55347 -1.1516 5.2953
upperback -10.9321 -1.36458 4.1142
thorax -8.47555 -0.933788 1.4422
lowerneck -10.1488 10.7902 8.27671
upperneck 27.9213 13.3442 1.07695
head 11.2337 7.06767 0.752411
rclavicle -1.17283e-014 7.15625e-015
rhumerus -0.0212161 -23.9407 15.9188
rradius 117.028
rwrist -57.6009
rhand -4.56646 -45.1166
rfingers 7.12502
rthumb 21.2099 -73.9762
lclavicle -1.17283e-014 7.15625e-015
lhumerus 31.326 32.3323 -12.6843
lradius 28.6255
lwrist 33.1058
lhand -20.5625 -16.6355
lfingers 7.12502
lthumb 5.79679 13.2652
rfemur -9.58112 8.28464 0.633291
rtibia 14.6426
rfoot 21.6835 -7.43248
rtoes -35.653
lfemur -26.0094 -4.66905 -19.7555
ltibia 22.4988
lfoot -14.4833 9.43509
ltoes 8.71296
115
root 3.99171 17.6494 3.54999 20.3678 -6.43054 -5.46714
lowerback -5.49875 -1.13329 5.25285
upperback -10.8347 -1.34125 4.09283
thorax -8.39569 -0.917487 1.43939
lowerneck -10.4073 10.618 8.08913
upperneck 28.1848 13.1235 1.0667
head 11.3606 6.94309 0.770918
rclavicle -7.90169e-015 -1.74931e-014
rhumerus 0.321142 -24.1372 15.6259
rradius 116.827
rwrist -57.5908
rhand -3.99558 -45.0526
rfingers 7.12502
rthumb 21.7582 -73.8496
lclavicle -7.90169e-015 -1.74931e-014
lhumerus 31.8264 32.6744 -12.224
lradius 28.5851
lwrist 32.8316
lhand -21.2339 -16.7734
lfingers 7.12502
lthumb 5.14847 13.1441
rfemur -9.67084 8.23914 0.670786
rtibia 14.7363
rfoot 21.2075 -7.36961
rtoes -36.2821
lfemur -26.1123 -4.5974 -19.7493
ltibia 22.6272
lfoot -14.5052 9.31142
ltoes 8.80966
116
root 3.99441 17.6485 3.53017 20.3174 -6.43887 -5.42661
lowerback -5.3759 -1.09478 5.18633
upperback -10.7211 -1.28904 4.01767
thorax -8.33671 -0.887436 1.39358
lowerneck -10.9027 10.2646 8.18985
upperneck 28.522 12.6534 0.729698
head 11.604 6.69095 0.612468
rclavicle -2.5345e-014 1.11319e-014
rhumerus 0.662834 -24.2894 15.2794
rradius 116.606
rwrist -57.3652
rhand -3.65952 -45.1436
rfingers 7.12502
rthumb 22.0809 -73.9029
lclavicle -2.5345e-014 1.11319e-014
lhumerus 31.7613 32.3514 -12.6105
lradius 28.8922
lwrist 33.4846
lhand -21.7579 -16.7082
lfingers 7.12502
lthumb 4.64252 13.221
rfemur -9.7177 8.22337 0.618218
rtibia 14.7276
rfoot 21.6482 -7.40125
rtoes -35.1964
lfemur -26.2204 -4.53782 -19.8099
ltibia 22.7814
lfoot -14.5008 9.25502
ltoes 8.76573
117
root 4.00519 17.6491 3.51576 20.307 -6.31311 -5.53733
lowerback -5.25748 -1.07323 5.41973
upperback -10.654 -1.25659 3.95982
thorax -8.33994 -0.891458 1.20327
lowerneck -11.2764 9.95979 8.25527
upperneck 28.7903 12.2369 0.503959
head 11.7875 6.47555 0.492048
rclavicle -6.0679e-014 4.05521e-014
rhumerus 0.943594 -24.2698 14.9828
rradius 116.467
rwrist -57.2113
rhand -3.53746 -45.0372
rfingers 7.12502
rthumb 22.1981 -73.7826
lclavicle -6.0679e-014 4.05521e-014
lhumerus 31.7109 31.8833 -13.0392
lradius 29.1716
lwrist 34.0855
lhand -21.7752 -16.5398
lfingers 7.12502
lthumb 4.62587 13.3897
rfemur -9.64027 7.99865 0.754024
rtibia 14.6489
rfoot 21.8107 -7.31983
rtoes -35.2275
lfemur -26.3496 -4.53529 -19.712
ltibia 22.9551
lfoot -14.517 9.17088
ltoes 8.7728
118
root 4.01422 17.6515 3.50557 20.375 -6.12506 -5.74294
lowerback -5.24227 -1.06828 5.7287
upperback -10.6538 -1.24739 3.97147
thorax -8.36118 -0.910915 1.04566
lowerneck -11.4048 9.83531 8.08707
upperneck 29.0753 12.0745 0.565437
head 11.8998 6.39015 0.531951
rclavicle 2.42517e-014 -5.32743e-014
rhumerus 1.21998 -24.1725 14.803
rradius 116.401
rwrist -57.2292
rhand -3.71858 -45.1618
rfingers 7.12502
rthumb 22.0242 -73.9278
lclavicle 2.42517e-014 -5.32743e-014
lhumerus 31.5308 31.1799 -13.6315
lradius 29.4205
lwrist 34.9844
lhand -21.209 -16.5091
lfingers 7.12502
lthumb 5.17254 13.4078
rfemur -9.55936 7.82222 1.01643
rtibia 14.5084
rfoot 21.9113 -7.34767
rtoes -35.2988
lfemur -26.5504 -4.46992 -19.5019
ltibia 23.1398
lfoot -14.5489 9.00379
ltoes 8.72773
119
root 4.01754 17.6525 3.49695 20.4426 -6.0623 -5.94046
lowerback -5.2569 -1.05331 5.91157
upperback -10.6537 -1.22596 4.01535
thorax -8.3592 -0.91264 0.990652
lowerneck -11.5071 9.78195 7.76027
upperneck 29.3896 12.0077 0.788556
head 11.9988 6.35143 0.668061
rclavicle 1.46604e-014 -2.8625e-014
rhumerus 1.55559 -24.0145 14.6745
rradius 116.346
rwrist -57.2706
rhand -4.33448 -45.3571
rfingers 7.12502
rthumb 21.4327 -74.1915
lclavicle 1.46604e-014 -2.8625e-014
lhumerus 31.2709 30.4823 -14.2304
lradius 29.7216
lwrist 35.985
lhand -20.4183 -16.3743
lfingers 7.12502
lthumb 5.93599 13.5225
rfemur -9.56548 7.83827 1.23626
rtibia 14.4103
rfoot 21.9617 -7.47977
rtoes -35.1886
lfemur -26.7194 -4.31961 -19.3116
ltibia 23.2972
lfoot -14.5745 8.88117
ltoes 8.49406
